<svg width="32" height="32" viewBox="0 0 32 32" fill="none" xmlns="http://www.w3.org/2000/svg">
<path d="M30.6667 17.3057H1.33333C0.597331 17.3057 0 16.7083 0 15.9723C0 15.2363 0.597331 14.639 1.33333 14.639H30.6667C31.4027 14.639 32 15.2363 32 15.9723C32 16.7083 31.4027 17.3057 30.6667 17.3057Z" fill="#2264D1"/>
<path d="M30.6667 7.08333H1.33333C0.597331 7.08333 0 6.486 0 5.75C0 5.014 0.597331 4.41667 1.33333 4.41667H30.6667C31.4027 4.41667 32 5.014 32 5.75C32 6.486 31.4027 7.08333 30.6667 7.08333Z" fill="#2264D1"/>
<path d="M30.6667 27.5277H1.33333C0.597331 27.5277 0 26.9303 0 26.1943C0 25.4583 0.597331 24.861 1.33333 24.861H30.6667C31.4027 24.861 32 25.4583 32 26.1943C32 26.9303 31.4027 27.5277 30.6667 27.5277Z" fill="#2264D1"/>
</svg>
